<svg viewBox="0 0 449 80">
    <path d="M78.6,78.56V5.5h45.62v9.77H89.94v23.14h31.39v9.57H89.94v30.58H78.6z M131.86,11.22c0-3.49,2.83-6.28,6.33-6.28 c3.49,0,6.33,2.79,6.33,6.28c0,3.44-2.83,6.28-6.33,6.28C134.69,17.5,131.86,14.67,131.86,11.22z M132.72,25.3h10.94v53.26h-10.94 V25.3z M170.68,12.69V25.3h10.12v8.66h-10.12v29.36c0,4.61,2.02,6.68,6.48,6.68c1.11,0,2.89-0.1,3.59-0.25v8.66 c-1.21,0.3-3.64,0.51-6.08,0.51c-10.78,0-14.99-4.1-14.99-14.38V33.96h-7.75V25.3h7.75V12.69H170.68z M189.98,25.3h10.43v8.91h0.25 c2.89-6.08,8.56-9.82,16.76-9.82c11.75,0,18.48,7.49,18.48,19.69v34.48h-10.99V46.21c0-8-3.75-12.4-11.34-12.4 c-7.7,0-12.66,5.47-12.66,13.72v31.04h-10.94V25.3z M291.07,62.91c-1.52,9.72-10.73,16.66-22.93,16.66 c-15.64,0-25.11-10.58-25.11-27.39c0-16.71,9.62-27.85,24.66-27.85c14.78,0,24,10.43,24,26.58v3.75h-37.62v0.66 c0,9.26,5.57,15.39,14.33,15.39c6.23,0,10.84-3.14,12.3-7.8H291.07z M254.11,47.02h26.63c-0.25-8.15-5.42-13.87-13.06-13.87 C260.03,33.15,254.66,38.97,254.11,47.02z M319.62,24.34c12.4,0,20.45,6.89,20.81,16.71h-10.28c-0.61-5.16-4.4-8.4-10.53-8.4 c-5.92,0-9.87,2.89-9.87,7.14c0,3.34,2.43,5.62,8.2,6.94l8.66,1.97c10.89,2.53,15.04,6.78,15.04,14.48c0,9.72-9.06,16.4-21.62,16.4 c-13.32,0-21.32-6.53-22.33-16.66h10.83c1.01,5.57,4.81,8.3,11.49,8.3c6.58,0,10.63-2.73,10.63-7.09c0-3.44-1.97-5.47-7.8-6.79 l-8.66-2.02c-10.13-2.33-15.14-7.19-15.14-14.94C299.07,30.87,307.37,24.34,319.62,24.34z M369.08,24.34 c12.4,0,20.45,6.89,20.81,16.71h-10.28c-0.61-5.16-4.4-8.4-10.53-8.4c-5.92,0-9.87,2.89-9.87,7.14c0,3.34,2.43,5.62,8.2,6.94 l8.66,1.97c10.89,2.53,15.04,6.78,15.04,14.48c0,9.72-9.06,16.4-21.62,16.4c-13.32,0-21.32-6.53-22.33-16.66h10.83 c1.01,5.57,4.81,8.3,11.49,8.3c6.58,0,10.63-2.73,10.63-7.09c0-3.44-1.97-5.47-7.8-6.79l-8.66-2.02 c-10.13-2.33-15.14-7.19-15.14-14.94C348.52,30.87,356.83,24.34,369.08,24.34z M428.07,78.63h-9.97V56.93h-20.66v-9.87h20.66V25.37 h9.97v21.69h20.71v9.87h-20.71V78.63z M43.87,12.64C46.64,9.29,48.5,4.63,47.99,0c-3.98,0.16-8.8,2.65-11.66,6 c-2.56,2.96-4.81,7.71-4.2,12.25C36.57,18.59,41.11,15.99,43.87,12.64z M47.89,19.13c-6.52-0.48-12.05,3.64-15.13,3.64 c-3.13,0-7.96-3.54-13.07-3.44c-6.72,0.1-12.91,3.91-16.38,9.93c-6.98,12.11-1.78,30.06,5.02,39.89c3.33,4.8,7.29,10.22,12.5,10.02 c5.01-0.2,6.91-3.24,12.97-3.24c6.06,0,7.77,3.24,13.07,3.15c5.4-0.1,8.82-4.9,12.12-9.73c3.82-5.57,5.39-10.97,5.48-11.26 c-0.12-0.05-10.52-4.04-10.62-16.02c-0.09-10.02,8.18-14.83,8.55-15.07C57.7,20.08,50.45,19.32,47.89,19.13z">
    </path>
</svg>